PathFileType	4	(X/Y/Z)	C:/Users/beibeiliu/ov580/test_trc/User3\sequence.16_training_dense_right.trc
DataRate	CameraRate	NumFrames	NumMarkers	Units	OrigDataRate	OrigDataStartFrame	OrigNumFrames
120	120	10	19	mm	120	134	266
Frame#	Time	ThumbCMC			ThumbMCP			ThumbIP			ThumbTip			IndexMCP			IndexPIP			IndexTip			MiddleMCP			MiddlePIP			MiddleTip			RingMCP			RingPIP			RingTip			PinkyMCP			PinkyPIP			PinkyTip			BackHand1			BackHand2			BackHand3	
		X0	Y0	Z0	X1	Y1	Z1	X2	Y2	Z2	X3	Y3	Z3	X4	Y4	Z4	X5	Y5	Z5	X6	Y6	Z6	X7	Y7	Z7	X8	Y8	Z8	X9	Y9	Z9	X10	Y10	Z10	X11	Y11	Z11	X12	Y12	Z12	X13	Y13	Z13	X14	Y14	Z14	X15	Y15	Z15	X16	Y16	Z16	X17	Y17	Z17	X18	Y18	Z18	
133	1.10833	140.883	-10.4748	24.6368	127.615	-14.2091	-7.15228	117.292	-16.7676	-31.665	115.959	-22.5997	-56.2577	149.674	9.20689	-52.6777	135.972	-10.1321	-74.2128	127.177	-42.2968	-68.9574	169.412	-5.61536	-60.795	150.338	-27.4711	-73.3565	146.792	-55.9926	-45.1647	186.615	-16.6528	-55.9807	173.301	-41.4832	-68.1683	162.959	-58.7387	-40.9756	203.693	-27.2592	-49.2983	186.853	-47.8318	-63.1264	171.291	-59.0383	-47.6776	202.036	-2.2281	-3.51011	205.068	-6.03283	24.6043	173.451	9.35241	16.9544	
134	1.11667	142.317	-11.0257	25.3557	125.189	-12.3147	-2.32282	108.807	-8.70187	-31.8639	109.711	-11.5042	-57.2362	149.663	16.8763	-47.5856	130.93	3.73686	-71.112	119.744	-29.6822	-68.0821	162.332	6.11467	-57.3858	146.468	-20.3248	-72.4806	143.43	-48.6836	-41.3364	179.13	-6.73371	-54.9567	165.659	-30.7571	-68.1274	153.478	-48.6436	-37.6187	197.305	-18.5784	-45.7224	178.054	-36.528	-62.5432	164.554	-52.8865	-46.7009	198.61	2.10792	1.88441	203.2	-10.4456	30.0913	175.13	8.96247	21.8294	
135	1.125	137.72	-7.23218	25.7797	118.69	-6.01858	-0.720758	106.483	-0.222695	-29.7319	108.887	-1.16871	-53.5651	143.935	27.1144	-40.1697	131.799	13.4104	-68.0985	119.465	-16.5923	-69.6669	161.117	13.6878	-55.5512	143.902	-9.01254	-70.7817	137.586	-37.5868	-46.5868	174.719	0.825138	-55.1018	159.467	-23.881	-65.1658	153.271	-41.5673	-40.9015	192.326	-11.6331	-46.0434	174.834	-29.9817	-62.9953	161.216	-47.6387	-45.5727	196.446	4.51953	0.087184	201.667	-8.12309	31.7132	170.59	11.4972	21.5805	
136	1.13333	135.685	-7.15325	29.4883	121.628	-1.61783	-0.160195	109.883	5.2399	-26.218	108.346	8.60151	-50.8972	147.212	32.9858	-35.7479	126.697	26.1046	-62.3611	116.458	-7.26931	-67.021	160.103	22.341	-50.0178	140.837	4.75661	-67.7598	135.963	-28.4786	-46.8045	176.83	8.19452	-49.5177	160.312	-12.7831	-64.134	150.532	-34.8999	-38.3227	190.832	-3.02603	-44.9319	173.275	-21.0198	-61.3392	157.286	-37.4568	-44.1977	196.145	9.41037	3.61095	201.668	-10.4543	31.6865	170.847	14.4168	26.396	
137	1.14167	133.981	-5.6994	30.4113	119.977	2.52578	0.51438	107.202	13.3976	-25.6306	108.654	13.6954	-47.6688	145.26	40.4295	-34.0435	127.984	32.727	-58.477	114.214	4.96044	-65.747	160.068	29.8	-44.9921	138.629	9.33626	-65.3086	133.303	-21.2031	-45.0467	175.605	15.8358	-48.6809	156.425	-6.86545	-62.0455	148.106	-27.1503	-36.2618	188.441	3.67128	-44.5253	173.046	-11.6779	-60.1797	160.795	-34.8931	-42.4558	198.738	9.96214	8.09055	197.833	-4.33575	34.9134	166.975	16.4255	30.4848	
138	1.15	133.946	-5.12311	30.4314	118.95	2.72676	2.68188	107.6	14.0968	-24.3776	105.952	18.9596	-49.1722	146.984	44.1024	-30.1465	128.876	37.1789	-57.2849	119.003	10.2436	-65.3512	160.954	36.481	-42.1271	142.4	15.3573	-62.8316	139.303	-15.7885	-49.1437	177.705	21.2873	-41.2886	162.574	-0.799184	-61.6427	150.019	-22.2002	-38.9281	191.158	9.52542	-40.8569	175.313	-4.31186	-58.3019	161.157	-28.991	-44.8024	195.681	16.0658	11.8808	200.685	-4.48145	35.653	167.962	13.6411	34.9704	
139	1.15833	138.19	-8.28869	29.3446	124.551	2.49173	0.40839	110.596	13.1711	-25.2647	113.388	17.778	-47.3675	144.187	47.1607	-26.3438	130.563	39.0244	-55.8401	121.891	14.2148	-64.7897	162.452	39.9385	-38.2677	147.436	19.1158	-63.0095	144.589	-14.163	-50.4892	178.113	25.6545	-37.9778	167.873	7.34561	-60.9449	156.661	-21.1606	-40.9553	196.289	11.6287	-39.4373	181.723	1.19026	-57.1846	165.594	-25.2784	-47.0211	195.01	16.7409	14.7274	200.412	-3.83006	39.4082	168.922	13.8319	36.1791	
140	1.16667	139.512	-7.61333	26.6913	120.835	-0.816343	0.120954	113.224	7.66203	-25.2901	116.579	15.7546	-50.3173	146.826	44.1828	-25.3155	136.941	36.2625	-58.8517	124.699	9.79574	-67.76	165.234	38.8658	-36.1988	150.311	20.1226	-64.6648	149.783	-16.2296	-54.8258	185.063	25.8319	-41.3495	170.166	8.04099	-62.5471	163.202	-22.9123	-44.8572	200.024	11.5257	-34.7801	186.715	1.8238	-57.2356	168.474	-26.1614	-47.4156	200.161	12.2116	15.3114	200.645	-4.07744	37.2548	166.181	13.911	35.9486	
141	1.175	137.359	-12.3354	26.9016	125.338	-3.99212	-5.07687	113.53	5.08506	-31.3455	120.536	7.30356	-54.2127	146.146	40.6463	-33.6318	140.402	31.2639	-62.2957	132.386	2.54131	-71.6414	169.708	33.4015	-41.454	152.951	16.5155	-67.8002	151.096	-20.1858	-59.1893	182.351	23.1692	-44.2221	175.155	1.54404	-65.388	164.6	-24.0605	-52.2247	204.657	7.75374	-38.081	188.546	-6.32958	-59.5907	177.68	-30.448	-50.8264	197.158	15.2159	12.9739	204.479	-5.31433	38.3396	171.407	11.7903	31.4981	
142	1.18333	138.989	-11.8373	20.7518	123.254	-10.2579	-6.19183	116.115	-3.41628	-35.7433	121.464	-4.16477	-57.5478	151.575	31.0598	-40.1699	140.337	20.148	-67.4118	132.512	-9.0048	-75.7756	170.479	25.126	-49.9003	160.653	5.92578	-73.0586	154.211	-33.2415	-57.7603	187.014	14.2463	-51.1975	176.996	-3.76816	-69.2113	167.331	-35.5406	-50.5479	205.124	0.992886	-42.702	192.102	-12.3879	-62.0139	180.169	-41.4271	-52.5894	199.111	8.64079	11.2139	206.809	-3.69783	32.7336	169.37	12.4801	28.1875	
